<svg class="svg-icon" style="width: 1em; height: 1em;vertical-align: middle;fill: currentColor;overflow: hidden;" viewBox="0 0 1024 1024" version="1.1" xmlns="http://www.w3.org/2000/svg"><path d="M1006.933333 785.066667H819.2V221.866667a17.066667 17.066667 0 0 0-17.066667-17.066667H238.933333V17.066667a17.066667 17.066667 0 0 0-34.133333 0V204.8H17.066667a17.066667 17.066667 0 0 0 0 34.133333H204.8v563.2a17.066667 17.066667 0 0 0 17.066667 17.066667H785.066667v187.733333a17.066667 17.066667 0 0 0 34.133333 0V819.2h187.733333a17.066667 17.066667 0 0 0 0-34.133333zM785.066667 785.066667H238.933333V238.933333h546.133334v546.133334z" fill="" /></svg>