<svg class="svg-icon" style="width: 1em; height: 1em;vertical-align: middle;fill: currentColor;overflow: hidden;" viewBox="0 0 1024 1024" version="1.1" xmlns="http://www.w3.org/2000/svg"><path d="M661.42 423.196l-121.424 154.788s-36.736 0-56.04 36.636c-9.436 17.96-11.46 40.056-6.26 56.668a88 88 0 0 1-26.72 4.14h-10.256c-2.984 0-4.572-1.684-5.392-3.128-0.772-1.444-1.396-3.66 0.144-6.212l111.84-183.576c22.244-36.592 62.684-59.316 105.536-59.316h8.572z" fill="#F68F6F" /><path d="M526.776 469.98c1.06-1.78 2.168-3.516 3.324-5.2V33.592h-106.788l-23.64 51.032H204.78l-23.64-51.032H74.452v847.74h455.648v-150.792l-54.116 37.94 30.332-83.484a112.756 112.756 0 0 1-55.32 14.492h-10.256c-23.592 0-38.084-25.808-25.804-45.932l111.84-183.576z" fill="#FFD552" /><path d="M590.788 404.996V52.816c0-28.404-22.964-52.044-51.08-52.768-1.06-0.048-2.024-0.048-3.032-0.048H66.44c-0.48 0-1.06 0-1.684 0.048C36.108 0.916 13.672 24.024 13.672 52.816v918.368C13.672 1000.312 37.36 1024 66.44 1024h471.536c29.128 0 52.816-23.688 52.816-52.816v-264.412h-39.336l-60.856 42.656 20.944-57.628a58.516 58.516 0 0 1-10.208-12.324 105.8 105.8 0 0 1-50.36 12.808h-10.256c-8.424 0-15.936-4.38-20.028-11.748-4.14-7.364-3.996-16.032 0.432-23.204l111.84-183.676c1.012-1.636 2.024-3.224 3.128-4.864 0.384-0.576 0.82-1.204 1.204-1.78v-23.256a143.4 143.4 0 0 0-13.144 16.948c-1.252 1.78-2.456 3.66-3.564 5.536l-111.84 183.576c-7.124 11.7-7.368 25.808-0.676 37.796 6.74 11.94 18.92 19.112 32.644 19.112h10.256a120.16 120.16 0 0 0 42.608-7.848l-24.408 67.116 10.976 8.424 96.196-67.452v264.22c0 21.136-17.188 38.372-38.372 38.372H66.44c-21.136 0-38.324-17.236-38.324-38.372V52.816c0-20.992 16.368-37.792 37.264-38.324l1.06-0.048h470.236c0.772-0.048 1.492 0 2.504 0.048 20.508 0.528 37.168 17.716 37.168 38.324v359.308s4.38-2.696 14.44-7.128z" fill="#4A555F" /><path d="M520.592 466.236a153.788 153.788 0 0 1 16.708-22.484V0H67.212v914.952h470.088V716.64l-46.7 32.788 20.944-57.628c-0.336-0.24-0.624-0.576-0.964-0.868-0.288 0.144-0.624 0.336-0.916 0.48a116.332 116.332 0 0 1-16.08 7.464l-32.208 88.684 61.48-43.14v156.088h-441.2V14.444h82.46l35.624 77.408h204.096l36.472-77.408h82.548v448.136c-0.768 1.204-1.54 2.456-2.264 3.656zM394.676 77.408H208.992L180.012 14.444h244.332l-29.668 62.964zM170.984 986.18H117.428v-46.152h53.556v46.152z m-39.112-14.444h24.668v-17.264h-24.668v17.264zM487.04 986.18h-53.556v-46.152h53.556v46.152z m-39.112-14.444h24.668v-17.264h-24.668v17.264zM307.392 992.4h-10.308c-16.156 0-29.296-13.14-29.296-29.296 0-16.152 13.14-29.292 29.296-29.292h10.308c16.152 0 29.292 13.14 29.292 29.292-0.004 16.152-13.144 29.296-29.292 29.296z m-10.308-44.144a14.868 14.868 0 0 0-14.852 14.848 14.868 14.868 0 0 0 14.852 14.852h10.308a14.868 14.868 0 0 0 14.848-14.852 14.868 14.868 0 0 0-14.848-14.848h-10.308z" fill="#4A555F" /><path d="M424.656 800.812l-12.632-6.948a24.8 24.8 0 0 1 1.592-2.752c4.476-8.14 6.516-18.836 4.368-23.9-0.66-1.552-1.416-1.824-2.192-1.984-10.804-2.208-22.164 12.48-29.772 25.2a10.748 10.748 0 0 1-13.364 4.46 10.8 10.8 0 0 1-6.436-12.62c0.54-2.208 1.176-4.576 1.844-7.06 3.988-14.792 8.944-33.2-1.236-42-7.272-6.288-17.928-8.04-28.636-6.628l-0.652 3.04c-3.744 17.556-7.988 37.448-17.02 53.748-5.528 9.968-16.52 14.188-27.328 10.544-10.8-3.652-17.188-14.06-15.54-25.304 2.144-14.616 8.808-28.024 18.76-37.732 7.776-7.588 18.38-13.408 29.688-16.564 6.584-29.596 17.932-82.692-10.324-96.692-13.692-6.772-32.892 0.6-46.296 9.776-18 12.312-34.628 29.14-50.116 45.324-28.456 29.724-52.796 65.068-72.344 105.06l-12.976-6.348c20.208-41.328 45.4-77.896 74.884-108.7 16.02-16.732 33.256-34.164 52.396-47.256 8.148-5.568 36.596-22.808 60.868-10.796 36.228 17.94 26.704 72.848 19.268 107.068 12.832-0.756 25.432 2.412 34.816 10.528 13.384 11.568 12.228 29 8.812 44.528 10.984-12.764 22.22-18.04 33.608-15.736 5.752 1.18 10.22 4.904 12.592 10.496 1.72 4.056 2.252 8.836 1.904 13.804 8.176-3.34 19.112-5.1 33.508-2.744l-5.316 14.912c-24.824-4.104-32.316 6.6-35.336 10.952-0.464 0.804-0.924 1.576-1.392 2.324z m-102.16-69.916c-6.136 2.6-11.712 6.14-15.996 10.32-7.7 7.512-12.868 17.988-14.556 29.492-0.78 5.296 2.524 8.392 5.872 9.524 3.224 1.08 7.568 0.648 10.068-3.864 7.308-13.184 11.28-30.016 14.612-45.472zM657.62 606.448h-114.872l367.628-479.924a45.352 45.352 0 0 1 36.228-17.84c10.112 0 19.704 3.26 27.732 9.428a45.376 45.376 0 0 1 17.848 36.204c0 10.088-3.264 19.684-9.436 27.74l-325.128 424.392z m-85.608-14.444h78.48L971.28 173.272a30.932 30.932 0 0 0 6.456-18.956 31.04 31.04 0 0 0-12.204-24.756 30.844 30.844 0 0 0-18.928-6.432 31 31 0 0 0-24.764 12.188l-349.828 456.688z" fill="#4A555F" /><path d="M942.684 210.588l-8.764 11.456-49.444-37.936 0.048-0.048 8.712-11.412z" fill="#4A555F" /><path d="M942.684 210.588l-8.764 11.456-49.396-37.984 8.712-11.412zM483.232 702.296a124.4 124.4 0 0 0 10.352-3.42 108.48 108.48 0 0 1-10.352 3.42zM753.432 721.756l-20.824-8.044a316.88 316.88 0 0 0-114.692-21.404h-67.78c-23.668 0-42.928-19.26-42.928-42.928 0-23.668 19.26-42.928 42.928-42.928h186.172c3.16 0 6.244-0.328 9.252-0.864 0.412-0.072 0.836-0.108 1.248-0.192 0.64-0.128 1.26-0.316 1.892-0.472 1.124-0.268 2.248-0.524 3.348-0.864l0.02-0.008a52.288 52.288 0 0 0 21.72-13.128 52.296 52.296 0 0 0 14.324-26.372c0.036-0.16 0.084-0.312 0.116-0.472 0.22-1.088 0.356-2.2 0.504-3.304 0.096-0.68 0.232-1.344 0.3-2.028 0.024-0.232 0.016-0.472 0.036-0.704 0.132-1.516 0.232-3.04 0.232-4.588h-0.012c-0.008-28.4-22.44-51.6-50.504-52.948l68.704-89.692a140.916 140.916 0 0 1 48.24 22.916l146.024 107.46 8.568-11.652-146.024-107.46a153.556 153.556 0 0 0-58.112-26.432l-4.524-1.012-92.1 120.268h26.72c21.28 0 38.564 17.332 38.564 38.564 0 1.936-0.188 3.836-0.464 5.716-0.1 0.66-0.172 1.332-0.304 1.98-0.04 0.204-0.108 0.404-0.152 0.608a38.664 38.664 0 0 1-25.66 28.308c-0.188 0.06-0.372 0.144-0.564 0.2-0.588 0.184-1.2 0.308-1.8 0.464a39.08 39.08 0 0 1-9.62 1.236h-164.272l153.296-200.092h-72.46c-44.244 0-86.468 19.352-115.548 51.852v23.256c26.048-37.6 69.568-60.664 115.548-60.664h43.188L553.788 592h-3.652c-31.632 0-57.368 25.736-57.368 57.368s25.736 57.368 57.368 57.368h67.78a302.392 302.392 0 0 1 109.484 20.432l20.836 8.056 0.004-0.004a317.088 317.088 0 0 0 114.668 21.428h143.136v-14.444h-143.136a302.352 302.352 0 0 1-109.476-20.448z" fill="#4A555F" /><path d="M136.096 180.188h143.008v143.008H136.096z" fill="#F68F6F" /><path d="M336.22 185.048h130.696v14.444H336.22z" fill="#4A555F" /><path d="M336.22 244.476h130.696v14.444H336.22z" fill="#4A555F" /><path d="M336.22 303.896h130.696v14.444H336.22z" fill="#4A555F" /><path d="M140.528 375.64h326.392v14.444H140.528z" fill="#4A555F" /><path d="M140.528 445.312h326.392v14.444H140.528z" fill="#4A555F" /><path d="M140.528 514.976h287.996v14.444H140.528z" fill="#4A555F" /><path d="M981.968 547.556l-136.204-100.24a124.808 124.808 0 0 0-31.296-16.708l-46.268 60.856s44.436 13.048 41.788 71.448c-1.396 31.296-20.944 46.892-35.676 54.692-9.916 5.2-21.088 7.56-32.304 7.56h-192.124l-0.048-0.004a25.244 25.244 0 1 0 0 50.488c0.736 0 1.428-0.156 2.144-0.216h65.904a333.944 333.944 0 0 1 120.796 22.58l20.8 8.04a286.28 286.28 0 0 0 103.416 19.304h143.136v-158.88l-24.064-18.92z" fill="#F68F6F" /></svg>