<svg class="svg-icon" style="width: 1em; height: 1em;vertical-align: middle;fill: currentColor;overflow: hidden;" viewBox="0 0 1024 1024" version="1.1" xmlns="http://www.w3.org/2000/svg"><path d="M620.970667 388.949333c-12.970667 0-25.514667 1.536-37.632 4.266667l0.256-0.085333c-29.354667-38.314667-75.605333-63.061333-127.658667-63.061334-88.832 0-160.768 74.496-160.768 163.328-45.482667 17.237333-77.994667 61.269333-77.994667 112.554667 0 66.133333 54.101333 120.32 120.32 120.32h283.477334c93.098667 0 168.618667-75.52 168.618666-168.618667 0-93.184-75.52-168.704-168.618666-168.704z" fill="#64EDAC" /><path d="M670.208 290.56c-12.544 0-24.832 0.938667-36.949333 2.645333-47.445333-52.224-113.749333-81.92-185.173334-81.92-131.754667 0-239.957333 102.229333-249.685333 231.509334-62.72 32.682667-105.728 98.304-105.728 173.909333 0 108.117333 87.978667 196.010667 196.010667 196.010667h381.525333c143.957333 0 261.12-117.162667 261.12-261.12s-117.162667-261.034667-261.12-261.034667z m0 453.888H288.682667c-70.485333 0-127.744-57.344-127.744-127.744S218.282667 488.96 288.682667 488.96c18.858667 0 34.133333-15.274667 34.133333-34.133333s-15.274667-34.133333-34.133333-34.133334c-6.144 0-12.202667 0.341333-18.176 0.853334 18.432-81.152 90.965333-141.994667 177.578666-141.994667 40.277333 0 78.336 12.970667 109.482667 36.522667-87.808 42.154667-148.48 131.84-148.48 235.52v48.469333l-7.338667-7.082667a34.2016 34.2016 0 0 0-48.298666 0.853334 34.2016 34.2016 0 0 0 0.853333 48.298666l65.109333 62.805334a33.792 33.792 0 0 0 23.722667 9.557333c8.277333 0 16.554667-2.986667 23.125333-9.045333l68.266667-62.805334a34.133333 34.133333 0 0 0-46.165333-50.261333l-11.008 10.154667v-51.029334c0-106.325333 86.528-192.853333 192.853333-192.853333s192.853333 86.528 192.853333 192.853333S776.533333 744.448 670.208 744.448z" fill="#333C4F" /><path d="M806.314667 585.728c-18.858667 0-34.133333-15.274667-34.133334-34.133333 0-83.882667-91.562667-107.264-101.973333-107.264-18.858667 0-34.133333-15.274667-34.133333-34.133334s15.274667-34.133333 34.133333-34.133333c48.469333 0 170.24 52.224 170.24 175.530667 0 18.858667-15.274667 34.133333-34.133333 34.133333z" fill="#333C4F" /></svg>