<svg class="svg-icon" style="width: 1em; height: 1em;vertical-align: middle;fill: currentColor;overflow: hidden;" viewBox="0 0 1024 1024" version="1.1" xmlns="http://www.w3.org/2000/svg"><path d="M511.312934 228.449545A273.018451 273.018451 0 0 0 240.735376 483.658515a269.85433 269.85433 0 0 0 43.484064 164.443895 274.193696 274.193696 0 0 0 42.670434 50.897149 25.493776 25.493776 0 0 1 7.955504 15.187781l7.865101 56.592566 20.792796 157.663636a61.293546 61.293546 0 0 0 37.788647 52.524411l82.447956 37.336629a74.582855 74.582855 0 0 0 28.567494 5.695418 75.48689 75.48689 0 0 0 28.567493-5.605015l81.363115-37.427032a61.38395 61.38395 0 0 0 37.87905-52.524411v-3.073718l21.42562-154.680321 7.865101-57.134987a25.945793 25.945793 0 0 1 7.865101-14.916571 271.210382 271.210382 0 0 0-186.050322-470.097996z m10.215591 744.291693a24.499338 24.499338 0 0 1-19.07513 0L451.194632 949.688355h120.236603z m91.759512-66.265737H409.699444L406.71613 885.953915h209.645625zM622.961208 842.650658H400.478291l-2.983314-20.611989h228.449545z m9.582767-63.824844H391.257138L387.91221 758.213825h247.705482z m34.534122-119.422971l-3.435332 3.254524a65.452106 65.452106 0 0 0-12.656484 18.080693 41.133575 41.133575 0 0 0-2.712104 6.509049l-0.452018 1.084841-1.084841 3.706542a107.760925 107.760925 0 0 0-3.887349 16.995851l-0.723228 5.785821H382.126388l-0.813631-5.876225a92.48274 92.48274 0 0 0-4.068156-18.080692 24.951355 24.951355 0 0 0-0.723227-2.440893 18.894323 18.894323 0 0 0-0.723228-2.07928c-0.813631-2.169683-1.717666-4.248963-2.712104-6.328242a68.70663 68.70663 0 0 0-11.481239-16.72464l-6.509049-6.237839a222.30211 222.30211 0 1 1 311.891939 1.898472z"  /><path d="M439.984603 346.245255l69.520261 113.817957-84.979253 87.600953 146.182396 117.072482-58.852653-117.072482 87.51055-87.600953L439.984603 346.245255zM657.649016 233.01492L768.863353 68.128048l44.966681 30.330361-111.214337 164.895913zM760.464872 331.988629l175.608722-93.377735 25.466655 47.895754L785.931526 379.875342zM484.82472 0h54.242076v198.887614h-54.242076zM210.043401 98.422248l44.966681-30.330361L366.215379 232.969718l-44.966681 30.330361zM62.504953 286.55185l25.466655-47.895754 175.608722 93.377735-25.466655 47.886713z"  /></svg>