<svg class="svg-icon" style="width: 1em; height: 1em;vertical-align: middle;fill: currentColor;overflow: hidden;" viewBox="0 0 1024 1024" version="1.1" xmlns="http://www.w3.org/2000/svg"><path d="M528.129864 160.64577c-151.897525 0-275.450493 123.555014-275.450493 275.448446 0 77.233012 32.996508 151.511739 89.258907 202.477504l170.304757 182.373631c4.123924 4.428869 9.856485 6.947226 15.886829 6.947226a21.656229 21.656229 0 0 0 15.84692-6.900154l169.090093-181.114964c57.520041-52.270481 90.512457-126.549208 90.512456-203.732078 0.001023-151.903665-123.593899-275.499611-275.449469-275.499611z m0 613.718683L395.246391 632.18936c17.364483-45.710065 69.939909-79.314417 132.88245-79.314417 62.950727 0 115.521037 33.604352 132.887566 79.275531l-132.886543 142.213979z m-63.641459-358.540909c0-35.078936 28.562523-63.640436 63.640436-63.640436 35.07689 0 63.644529 28.563546 63.644529 63.640436 0 35.07996-28.567639 63.643506-63.644529 63.643505-35.077913 0-63.640436-28.523637-63.640436-63.643505z m228.563626 182.632527c-23.484877-41.804105-68.240197-73.316819-122.682134-84.309175 38.07313-16.407692 64.815191-54.260811 64.815192-98.280374 0-59.040674-48.013527-107.055225-107.055225-107.055224-59.038628 0-107.054201 48.01455-107.054201 107.010199 0 44.020586 26.744107 81.875752 64.817238 98.28549-54.43682 11.030218-99.199303 42.544979-122.685204 84.349084-42.627866-43.364647-67.112514-101.671611-67.112514-162.363901 0-127.932718 104.054891-232.036727 232.034681-232.036728 127.977743 0 232.04082 104.061031 232.04082 232.036728-0.001023 60.217477-24.097838 118.133537-67.118653 162.363901z" fill="" /></svg>