<svg class="svg-icon" style="width: 1em; height: 1em;vertical-align: middle;fill: currentColor;overflow: hidden;" viewBox="0 0 1024 1024" version="1.1" xmlns="http://www.w3.org/2000/svg"><path d="M676.506704 767.498068c-0.178055 0.182149-0.366344 0.349971-0.548492 0.527003-0.231267 0.221034-0.471744 0.455371-0.703011 0.676405l-0.054235-0.052189c-7.390317 6.894014-17.234523 11.19804-28.138874 11.19804-22.848381 0-41.3692-18.522865-41.3692-41.3692 0-10.628058 4.122901-20.219507 10.707876-27.545356l-0.26299-0.260943c136.63696-131.958404 248.593821-273.131681 248.188592-338.188372-0.095167-15.149025 1.11745-29.074176-0.419556-41.859363-12.933567-107.685581-75.988672-134.771473-132.777049-134.771473-47.745421 0-92.304266 40.09723-123.638925 98.195439-55.495942 104.82237-135.774313 103.59338-190.623525 2.078335-30.769794-56.948013-76.045977-99.66593-125.546368-99.66593-58.646702 0-117.731378 27.758204-129.523959 133.981481-1.360997 12.263301-0.052189 25.574469-0.140193 40.006156-0.502443 80.648808 170.713057 281.552467 349.655542 435.419857 0.024559-0.01842 0.048095-0.040932 0.070608-0.062422l23.853267 18.111496c0.415462 0.277316 0.779759 0.60989 1.184989 0.901533l3.495614 2.653433-0.115634 0.134053c8.416693 7.519254 13.817704 18.33867 13.817704 30.513968 0 22.678512-18.388812 41.065278-41.065278 41.065278-10.120498 0-19.265786-3.801583-26.421766-9.870812l-0.074701 0.084934C391.812687 810.872948 76.741825 535.985274 77.780481 371.314841c0.231267-36.94033 0.161682-69.232804 7.363711-97.292883C115.16288 157.079548 203.813942 113.560382 292.405653 112.935142c74.889641-0.531096 152.392806 48.984644 201.638393 143.506415 13.554714 26.02677 22.184255 26.14138 35.440164 0.2415C579.10842 159.750377 654.773727 113.467261 728.07315 113.020076c89.412402-0.544399 179.447998 43.015699 210.290447 160.703075 7.510044 28.66076 7.620561 61.715597 7.855922 99.603509C946.93481 486.899322 799.630906 650.573055 676.506704 767.498068zM512.508583 911.068951c0 0-0.429789-0.343831-1.226944-0.982374l2.465145 0C512.936325 910.729214 512.508583 911.068951 512.508583 911.068951z"  /></svg>