<svg class="svg-icon" style="width: 1em; height: 1em;vertical-align: middle;fill: currentColor;overflow: hidden;" viewBox="0 0 1024 1024" version="1.1" xmlns="http://www.w3.org/2000/svg"><path d="M335.36 960a168.96 43.52 0 1 0 337.92 0 168.96 43.52 0 1 0-337.92 0Z" fill="#C6C4C4" /><path d="M501.76 97.792c-0.512-3.584-4.608-23.552-4.096-40.96C485.376 51.2 479.232 37.888 481.28 20.48l5.12 0.512c-2.048 18.432 5.632 26.624 11.776 30.208 1.024-8.704 3.072-16.384 7.68-20.48 3.584-3.584 8.704-4.096 14.336-2.048h0.512l0.512 0.512c11.264 11.264 8.192 19.456 6.144 22.016-4.096 6.656-14.848 9.728-24.576 7.168 0 14.336 2.048 30.208 3.584 38.4l-4.608 1.024z m1.536-44.544c8.192 2.56 16.896 0.512 19.968-4.608 2.56-4.096 1.024-9.728-5.12-15.36-3.584-1.024-6.656-0.512-9.216 1.024-3.072 3.584-5.12 10.24-5.632 18.944z" fill="#B47065" /><path d="M442.88 593.92s-172.544 172.544-46.08 199.68l46.08-199.68z" fill="#FEE6E2" /><path d="M398.848 796.672l-2.56-0.512c-25.6-5.632-40.96-17.408-46.08-35.328-17.408-59.392 86.528-164.352 91.136-168.96l6.144-6.144-48.64 210.944z m39.424-194.048c-22.528 24.064-97.792 109.056-83.456 157.184 4.608 15.36 17.92 25.6 39.936 31.232l43.52-188.416z" fill="#B47065" /><path d="M591.36 593.92s172.544 172.544 46.08 199.68l-46.08-199.68z" fill="#FEE6E2" /><path d="M635.392 796.672l-48.64-210.944 6.144 6.144c4.608 4.608 108.544 109.568 91.136 168.96-5.12 17.92-20.992 29.696-46.08 35.328l-2.56 0.512z m-39.424-194.048l43.52 187.904c22.016-5.12 35.328-15.872 39.936-31.232 14.336-48.128-60.928-132.608-83.456-156.672z" fill="#B47065" /><path d="M442.88 593.92s-151.04 271.36 25.6 368.64h35.84s-61.44-65.024-35.84-133.12c0 0 53.76 25.088 107.52 0 0 0 8.704 99.84-46.08 133.12h46.08s165.376-112.64 20.48-368.64h-153.6z" fill="#FEE6E2" /><path d="M577.024 965.12h-55.808l7.68-4.608c46.592-28.672 46.08-109.056 45.056-126.976-46.08 19.968-92.16 4.096-103.424-0.512-22.528 65.024 35.84 127.488 36.352 128l4.096 4.096h-42.496l-0.512-0.512c-39.936-22.016-66.56-55.296-78.848-97.792-33.792-117.248 51.712-272.896 52.224-274.432l0.512-1.536h156.672l0.512 1.536c41.472 73.216 82.944 182.272 44.544 282.624-23.04 60.416-64 88.576-65.536 89.6l-1.024 0.512z m-38.912-5.12h36.864c5.12-3.584 41.984-32.256 62.976-87.04 37.888-97.792-2.56-204.288-43.52-276.48H444.416c-8.192 15.36-82.944 159.232-51.2 268.8 11.776 41.472 37.376 73.216 76.288 94.72h29.696c-13.312-15.872-54.784-72.704-32.768-131.584l1.024-2.56 2.56 1.024c0.512 0 53.248 24.064 105.472 0l3.072-1.536 0.512 3.584s2.048 25.6-2.56 54.784c-6.144 35.328-18.944 61.44-38.4 76.288z" fill="#B47065" /><path d="M512 76.8c176.64 0 321.536 120.32 320 268.8-3.072 235.52-143.36 268.8-320 268.8s-325.632-50.688-320-268.8c4.096-148.48 143.36-268.8 320-268.8z" fill="#FEE6E2" /><path d="M512 616.96c-123.904 0-209.408-25.6-261.12-78.848-43.008-44.032-64-109.056-61.44-192.512 4.096-152.064 145.92-271.36 322.56-271.36 96.768 0 187.392 35.84 249.344 98.304 48.128 48.64 74.24 110.08 73.216 173.056-1.536 110.08-32.768 183.296-95.744 224.768-62.464 40.96-149.504 46.592-226.816 46.592z m0-537.6c-174.08 0-313.344 116.736-317.44 266.24-2.048 81.92 17.92 145.408 59.904 188.928 50.688 52.224 135.168 77.312 257.024 77.312 194.048 0 314.368-44.544 317.44-266.24 0.512-61.44-24.576-121.856-71.68-169.472-60.416-61.44-150.016-96.768-245.248-96.768z" fill="#B47065" /><path d="M693.76 458.24a30.72 17.92 0 1 0 61.44 0 30.72 17.92 0 1 0-61.44 0Z" fill="#FFAEAA" /><path d="M268.8 458.24a30.72 17.92 0 1 0 61.44 0 30.72 17.92 0 1 0-61.44 0Z" fill="#FFAEAA" /><path d="M373.76 442.88c-24.576 0-60.416-8.704-74.24-26.624-7.168-9.216-11.776-24.576 6.144-46.08 35.84-41.984 74.752-50.176 100.864-49.152 28.16 1.024 48.128 11.776 48.64 12.288l-5.12 8.704c-3.072-1.536-73.216-39.424-137.216 34.816-11.264 12.8-13.312 24.064-6.144 33.28 16.384 20.48 70.144 26.112 81.408 20.48l20.48-10.24 4.608 9.216-20.48 10.24c-3.072 2.048-10.24 3.072-18.944 3.072z" fill="#B47065" /><path d="M391.68 366.08a28.16 15.36 90 1 0 30.72 0 28.16 15.36 90 1 0-30.72 0Z" fill="#B47065" /><path d="M648.192 435.2l-1.024-10.24c23.552-2.56 62.976-11.776 68.608-26.112 0.512-1.536 2.56-7.168-5.632-16.384-51.712-59.392-132.096-34.816-132.608-34.304l-3.072-9.728c1.024-0.512 87.04-27.136 143.872 37.376 8.192 9.728 10.752 18.432 7.68 27.136-10.24 25.088-71.168 31.744-77.824 32.256z" fill="#B47065" /><path d="M606.72 368.64a25.6 15.36 90 1 0 30.72 0 25.6 15.36 90 1 0-30.72 0Z" fill="#B47065" /><path d="M350.72 272.896c-9.728 0-19.968-0.512-31.232-1.536l1.024-10.24c64 6.656 102.4-8.704 123.392-22.016 22.528-14.848 30.208-31.232 30.208-31.232l9.216 4.096c-1.024 3.072-28.16 60.928-132.608 60.928zM667.136 276.48c-76.288 0-120.32-62.464-120.832-63.488l8.192-5.632c2.048 3.072 55.808 78.848 147.968 54.272l2.56 9.728c-13.312 3.584-26.112 5.12-37.888 5.12zM523.776 523.776c-0.512 0-0.512 0 0 0-5.632 0-9.216-5.12-15.36-13.312-2.048-3.072-4.608-6.144-7.68-10.24-4.096-5.12-8.192-7.68-12.8-7.68-8.704 0.512-17.408 12.8-19.968 17.408l-8.704-5.12c1.024-2.048 12.288-20.992 28.16-22.528 7.68-0.512 14.848 3.072 21.504 11.264 3.072 4.096 5.632 7.68 7.68 10.752 3.072 4.096 5.632 8.192 7.168 9.216 2.048-1.024 6.144-6.656 10.24-12.288l2.048-2.56c5.12-6.656 13.312-14.848 20.992-12.288 7.68 2.56 8.704 13.312 8.704 15.36l-10.24 0.512c0-2.56-1.024-5.632-1.536-6.144 0 0-3.072 0.512-9.728 9.216l-2.048 2.56c-8.704 10.752-12.8 15.872-18.432 15.872z" fill="#B47065" /></svg>