<svg class="svg-icon" style="width: 1em; height: 1em;vertical-align: middle;fill: currentColor;overflow: hidden;" viewBox="0 0 1024 1024" version="1.1" xmlns="http://www.w3.org/2000/svg"><path d="M401.066667 448l203.306667-352.213333c-29.653333-6.613333-60.586667-10.453333-92.373333-10.453333-102.4 0-196.053333 36.053333-269.653333 96.213333l156.373333 270.72 2.346667-4.266667zM919.04 384c-39.253333-124.8-134.4-224.426667-255.786667-270.506667l-156.16 270.506667 411.946667 0zM930.133333 426.666667l-319.573333 0 12.373333 21.333333 203.306667 352c69.546667-75.946667 112.426667-176.853333 112.426667-288 0-29.226667-2.986667-57.813333-8.533333-85.333333zM364.16 512l-166.4-288c-69.546667 75.946667-112.426667 176.853333-112.426667 288 0 29.226667 2.986667 57.813333 8.533333 85.333333l319.573333 0-49.28-85.333333zM104.96 640c39.253333 124.8 134.4 224.426667 255.786667 270.506667l156.16-270.506667-411.946667 0zM585.813333 640l-166.4 288.213333c29.866667 6.613333 60.8 10.453333 92.586667 10.453333 102.4 0 196.053333-36.053333 269.653333-96.213333l-156.373333-270.72-39.466667 68.266667z"  /></svg>