<svg class="svg-icon"
     style="width: 1em; height: 1em;vertical-align: middle;fill: currentColor;overflow: hidden;"
     viewBox="0 0 1024 1024" version="1.1" xmlns="http://www.w3.org/2000/svg">
    <path d="M981.333333 680.277333a41.749333 41.749333 0 0 1-12.501333 32.554667l-256 256c-9.429333 9.450667-21.226667 13.226667-32.554667 12.501333H149.248A106.666667 106.666667 0 0 1 42.666667 874.517333V149.482667A106.752 106.752 0 0 1 149.482667 42.666667h725.034666C933.44 42.666667 981.333333 90.496 981.333333 149.248v531.029333zM640 896v-106.624A149.226667 149.226667 0 0 1 789.376 640H896V149.248C896 137.664 886.336 128 874.517333 128H149.482667C137.578667 128 128 137.578667 128 149.482667v725.034666A21.333333 21.333333 0 0 0 149.248 896H640zM362.666667 384a64 64 0 1 1 0-128 64 64 0 0 1 0 128z m-85.333334 166.4a42.666667 42.666667 0 0 1 39.082667-59.733333h391.168A42.666667 42.666667 0 0 1 746.666667 550.4 256.021333 256.021333 0 0 1 512 704a256.021333 256.021333 0 0 1-234.666667-153.6zM512 618.666667a170.453333 170.453333 0 0 0 112.917333-42.666667H399.082667A170.453333 170.453333 0 0 0 512 618.666667z m149.333333-234.666667a64 64 0 1 1 0-128 64 64 0 0 1 0 128z m128.042667 341.333333A63.893333 63.893333 0 0 0 725.333333 789.376v46.293333L835.669333 725.333333h-46.293333z"
          fill="#000"/>
</svg>