<svg class="svg-icon" style="width: 1em; height: 1em;vertical-align: middle;fill: currentColor;overflow: hidden;" viewBox="0 0 1024 1024" version="1.1" xmlns="http://www.w3.org/2000/svg"><path d="M779.392468 778.795369 354.707093 778.795369c-12.332886 0-22.352077-10.041704-22.352077-22.352077 0-12.310374 10.019191-22.352077 22.352077-22.352077l424.684352 0c73.955362 0 134.11144-60.158125 134.11144-134.112464 0-73.954339-60.155055-134.11144-134.11144-134.11144-15.321964 0-30.381961 2.554172-44.705178 7.597025-9.688663 3.447519-20.47431-0.218988-26.105564-8.79941-5.628184-8.577353-4.711302-19.949354 2.273786-27.503401 15.368012-16.588817 23.831778-38.133505 23.831778-60.747549 0-49.308009-40.075741-89.408309-89.406263-89.408309-47.146786 0-86.351694 36.803207-89.229231 83.820034-0.569982 9.473769-7.075139 17.572214-16.243963 20.125363-9.101285 2.533706-18.900465-0.89437-24.338315-8.686846-41.884946-59.635215-110.339014-95.258551-183.113481-95.258551-123.242905 0-223.521796 100.279914-223.521796 223.51975 0 6.768147 0.306992 13.665231 0.896416 20.345374 1.112334 12.265348-7.968485 23.181979-20.256346 24.2718-12.290931 1.092891-23.159466-7.987928-24.273846-20.256346-0.720408-8.032954-1.070378-16.196891-1.070378-24.360827 0-147.883095 120.339786-268.222881 268.224927-268.222881 72.01108 0 140.505058 29.055756 190.495612 79.389118 21.063735-46.930869 68.254523-79.389118 122.4304-79.389118 73.956386 0 134.11144 60.158125 134.11144 134.11144 0 15.454994-2.615571 30.625508-7.682983 44.880163 2.536776-0.089028 5.151323-0.176009 7.682983-0.176009 98.622158 0 178.815595 80.196507 178.815595 178.815595 0 98.620112-80.193437 178.817642-178.815595 178.817642L779.391445 778.795369z"  /><path d="M220.596675 756.443291c-5.719258 0-11.43954-2.182712-15.8285-6.54916l-89.407286-89.407286c-8.709359-8.686846-8.709359-22.874987 0-31.606859 8.711406-8.688893 22.899546-8.688893 31.607882 0l73.582879 73.606415L428.246993 494.79106c8.707312-8.711406 22.895453-8.711406 31.604812 0 8.709359 8.709359 8.709359 22.897499 0 31.584346L236.332055 749.894132c-4.38589 4.409426-10.105149 6.54916-15.82543 6.54916L220.596675 756.443291z"  /></svg>