<svg class="svg-icon" style="width: 1em; height: 1em;vertical-align: middle;fill: currentColor;overflow: hidden;" viewBox="0 0 1024 1024" version="1.1" xmlns="http://www.w3.org/2000/svg"><path d="M507.4 521.7m-77.6 0a77.6 77.6 0 1 0 155.2 0 77.6 77.6 0 1 0-155.2 0Z" fill="#242424" /><path d="M232.8 812.6c-77-72.9-125.3-176.5-125.3-290.9 0-112.3 46.3-213.7 120.8-286.4l-55.9-59.8C81.8 263.1 25.5 385.8 25.5 521.7c0 138 58 262.5 151 350.3l56.3-59.4zM835.3 168.6L776.7 226c80.3 73.1 130.6 178.5 130.6 295.7 0 117.2-50.9 223.5-131.2 296.7l59.1 56.5c94.8-88 154.1-213.7 154.1-353.2s-59.3-265.1-154-353.1z" fill="#242424" /><path d="M273.5 522c0-64.4 26-122.7 68.2-165l-56.3-60.2c-58.2 57.3-94.3 137.1-94.3 225.2 0 90.3 37.8 171.7 98.5 229.3l56.3-59.9c-44.6-42.5-72.4-102.8-72.4-169.4zM823.6 522c0-94.3-41.3-179-106.8-236.9l-58.5 57.4c51 42.9 83 107.7 83 179.6 0 71.9-36.3 135.4-81 178.1l56.4 58.9c65.5-58 106.9-142.7 106.9-237.1z" fill="#242424" /><path d="M201.5 204.4m-40.9 0a40.9 40.9 0 1 0 81.8 0 40.9 40.9 0 1 0-81.8 0Z" fill="#242424" /><path d="M314 326.4m-40.9 0a40.9 40.9 0 1 0 81.8 0 40.9 40.9 0 1 0-81.8 0Z" fill="#242424" /><path d="M686.4 312.3m-40.9 0a40.9 40.9 0 1 0 81.8 0 40.9 40.9 0 1 0-81.8 0Z" fill="#242424" /><path d="M206.5 844m-40.9 0a40.9 40.9 0 1 0 81.8 0 40.9 40.9 0 1 0-81.8 0Z" fill="#242424" /><path d="M317.8 721.3m-40.9 0a40.9 40.9 0 1 0 81.8 0 40.9 40.9 0 1 0-81.8 0Z" fill="#242424" /><path d="M690.4 727.9m-40.9 0a40.9 40.9 0 1 0 81.8 0 40.9 40.9 0 1 0-81.8 0Z" fill="#242424" /><path d="M804.4 847.9m-40.9 0a40.9 40.9 0 1 0 81.8 0 40.9 40.9 0 1 0-81.8 0Z" fill="#242424" /><path d="M806 197.3m-40.9 0a40.9 40.9 0 1 0 81.8 0 40.9 40.9 0 1 0-81.8 0Z" fill="#242424" /></svg>